<?xml version="1.0" encoding="UTF-8"?>
<svg width="700pt" height="700pt" version="1.1" viewBox="0 0 700 700" xmlns="http://www.w3.org/2000/svg">
 <path d="m636.57 470.08c-6.7773 0-12.25-5.4727-12.25-12.25 0-6.7617 5.4727-12.25 12.25-12.25 6.7617 0 12.25 5.4727 12.25 12.25s-5.4883 12.25-12.25 12.25m-386.77-13.539c-147.34 84.352-296.43-212.42-49.18-264.36 97.02-20.383 257.67-4.1445 256.66-162.88-0.76953 0.71484-1.4141 1.6094-1.875 2.6328-60.004 131.73-206.09 88.633-316.79 118.58-37.395 10.109-72.73 30.98-98.238 60.324-52.078 59.891-51.871 144.31-10.445 220.82 34.539 63.824 93.828 94.262 93.828 94.262 4.5625 12.461 8.0234 26.363 10.484 39.523l5.4453 96.77c0 4.6758 3.793 8.4688 8.4688 8.4688h53.996c4.6758 0 8.4688-3.8086 8.4688-8.4688-0.015625-23.855-3.9062-91.602 12.684-100.41 15.777-8.3594 43.555 22.891 112.57 15.398 51.004-5.543 45.219 8.4688 45.219 85.008 0 4.6758 3.8086 8.4688 8.4844 8.4688l51.617-0.042969c10.457 0 11.02-5.1641 10.988-9.8008l-0.14062-41.16c0.19531-19.18 9.2383-35.449 26.922-46.941 94.852-70.867 83.469-66.277 184.3-53.816 13.047 1.6094 35.016-16.043 36.68-29.441 1.4844-12.375-33.711-57.566-41.957-69.832l-6.9023 4.4375c-42.152 31.137-82.277-32.633-108.89 18.031-38.625 73.5-109.44 30.199-156.77-1.2891-74.746-49.711-81.273-15.395-135.62 15.711zm-45.668-247.42c-221.05 46.426-87.094 303.45 37.043 232.34 56.434-32.312 67.156-72.703 153.8-15.094 39.73 26.418 100.49 67.41 131.88 7.6719 21.016-39.969 45.555-32.172 71.078-24.023 26.305 8.3867 30.785 7.7148 50.512-4.5781l-7.0859-10.57c-26.336-38.164-77.617-43.262-115.15-17.668-24.473 18.355-50.246 33.109-75.391 10.949-134.36-118.47-241.59-7.6016-270.87-22.637-9.1836-4.7031 12.516-37.801 53.227-44.043 177.44-27.215 365.08-96.012 241.43-284.03-1.6484 166.93-177.67 152.19-270.48 171.68z" fill-rule="evenodd"/>
</svg>
